<svg xmlns="http://www.w3.org/2000/svg" width="256" height="256" viewBox="0 0 100 100"><path d="M33.07 50.04L33.07 50.04Q33.07 42.09 29.17 38.19Q25.28 34.30 19.05 34.30L19.05 34.30Q17.57 34.30 16.26 34.38Q14.95 34.46 13.63 34.71L13.63 34.71L13.63 65.21Q14.70 65.46 16.22 65.58Q17.73 65.70 19.13 65.70L19.13 65.70Q25.52 65.70 29.30 61.81Q33.07 57.91 33.07 50.04ZM46.35 49.88L46.35 49.88Q46.35 56.44 44.38 61.36Q42.41 66.28 38.85 69.56Q35.28 72.84 30.24 74.48Q25.20 76.12 19.05 76.12L19.05 76.12Q17.65 76.12 15.89 76.03Q14.13 75.95 12.28 75.75Q10.44 75.54 8.55 75.17Q6.66 74.81 5.11 74.23L5.11 74.23Q0.84 72.67 0.84 68.66L0.84 68.66L0.84 29.62Q0.84 27.98 1.70 27.08Q2.56 26.18 4.20 25.60L4.20 25.60Q7.57 24.54 11.34 24.21Q15.11 23.88 18.23 23.88L18.23 23.88Q24.54 23.88 29.70 25.44Q34.87 27.00 38.56 30.24Q42.25 33.48 44.30 38.36Q46.35 43.23 46.35 49.88ZM99.16 50.29L99.16 67.34Q99.16 69.72 98.26 70.87Q97.36 72.02 95.39 73.17L95.39 73.17Q94.24 73.82 92.60 74.39Q90.96 74.97 88.95 75.38Q86.94 75.79 84.77 76.03Q82.59 76.28 80.46 76.28L80.46 76.28Q74.56 76.28 69.52 74.76Q64.47 73.25 60.70 70.05Q56.93 66.85 54.80 61.93Q52.66 57.01 52.66 50.12L52.66 50.12Q52.66 43.64 54.84 38.68Q57.01 33.72 60.74 30.40Q64.47 27.08 69.52 25.40Q74.56 23.72 80.38 23.72L80.38 23.72Q88.01 23.72 92.52 26.10Q97.03 28.48 97.03 32.16L97.03 32.16Q97.03 34.05 96.04 35.49Q95.06 36.92 93.75 37.74L93.75 37.74Q91.70 36.43 88.62 35.28Q85.55 34.13 81.36 34.13L81.36 34.13Q77.92 34.13 75.09 35.24Q72.26 36.35 70.21 38.40Q68.16 40.45 67.02 43.40Q65.87 46.35 65.87 50.04L65.87 50.04Q65.87 54.06 66.97 57.05Q68.08 60.05 70.05 62.01Q72.02 63.98 74.76 64.97Q77.51 65.95 80.71 65.95L80.71 65.95Q82.68 65.95 84.28 65.54Q85.88 65.13 86.78 64.72L86.78 64.72L86.78 55.45L77.35 55.45Q76.86 54.63 76.44 53.32Q76.03 52.01 76.03 50.53L76.03 50.53Q76.03 47.91 77.27 46.68Q78.50 45.45 80.46 45.45L80.46 45.45L94.24 45.45Q96.53 45.45 97.85 46.72Q99.16 47.99 99.16 50.29L99.16 50.29Z" fill="#4a53e2"></path></svg>